<?xml version="1.0" encoding="utf-8"?>
<!-- Generator: Adobe Illustrator 19.2.1, SVG Export Plug-In . SVG Version: 6.00 Build 0)  -->
<svg version="1.1" id="layer" xmlns="http://www.w3.org/2000/svg" xmlns:xlink="http://www.w3.org/1999/xlink" x="0px" y="0px"
	 viewBox="0 0 652 652" style="enable-background:new 0 0 652 652;" xml:space="preserve">
<style type="text/css">
	.st0{fill-rule:evenodd;clip-rule:evenodd;fill:#007AC2;}
	.st1{fill:#007AC2;}
</style>
<path class="st0" d="M270.3,257.5c0-27.3,22.1-49.4,49.4-49.4c27.3,0,49.4,22.1,49.4,49.4c0,27.3-22.1,49.4-49.4,49.4
	C292.4,306.9,270.3,284.8,270.3,257.5 M-16.8,306.8c0,0,185.1,0.1,186.2,0.1c27.3,0,49.3-22.1,49.3-49.4c0-25.4-19.2-46.3-43.8-49
	c-1.6-0.2-3.4-0.3-5.3-0.3h-57.6v69.6H-16.8V72.4h174.6c110.9,0,153.7,75.5,162.2,89c8-13.5,57.5-89,152.1-89h180.7v135.7H474
	c-1.8,0-3.6,0.1-5.1,0.3c-24.6,2.9-43.7,23.7-43.7,49c0,27.3,22.1,49.4,49.4,49.4c1,0,178.1-0.1,178.1-0.1l0.2,135.6H459.4
	c-91.7,0-139.3-84.7-139.3-84.7s-46.3,84.7-150,84.7H-16.8V306.8z"/>
<path class="st1" d="M8.8,497.2c7.1,0,19.3,0,29.3,7.7c8.4,6.4,14.4,17,14.4,29.9c0,19.1-13.4,29.1-18.1,32
	c-9.1,5.6-19.5,5.6-27.2,5.6h-23.8v-75.2 M-5.9,506.8v55.9H8c5.6,0,14.4-0.4,20.8-4.3c7.6-4.7,12.6-13.9,12.6-24.1
	c0-9.1-4.2-19.6-15.7-24.7c-6.2-2.8-11.2-2.8-18.1-2.8H-5.9z"/>
<polyline class="st1" points="143.1,506.8 111.2,506.8 111.2,529.7 142,529.7 142,539.3 111.2,539.3 111.2,562.7 144.1,562.7 
	144.1,572.4 100.4,572.4 100.4,497.2 143.1,497.2 "/>
<polyline class="st1" points="206.9,562.6 240.7,562.6 240.7,572.4 196,572.4 196,497.2 206.9,497.2 "/>
<polyline class="st1" points="301.4,562.6 335.2,562.6 335.2,572.4 290.5,572.4 290.5,497.2 301.4,497.2 "/>
<polyline class="st1" points="453.9,572.4 444.6,572.4 394.4,514.5 394.4,572.4 384.2,572.4 384.2,497.2 393,497.2 443.7,555.5 
	443.7,497.2 453.9,497.2 "/>
<polyline class="st1" points="549.8,506.8 518,506.8 518,529.7 548.7,529.7 548.7,539.3 518,539.3 518,562.7 550.8,562.7 
	550.8,572.4 507.2,572.4 507.2,497.2 549.8,497.2 "/>
<path class="st1" d="M618.2,497.2c3.5,0,8.2,0.3,12.9,2.4c8,3.4,11.8,10.9,11.8,18.5c0,8.7-4.4,15.3-12.6,18.5
	c6.8,4.5,11,11.5,16.7,20.7c3.2,5.2,5.1,7.7,10.2,15h-12.8c-2.5-3.6-13-20.1-15.4-23.2c-7.4-9.5-11-9.5-16.2-9.5H610v32.7h-10.7
	v-75.2 M610,506.4v23.7h4.2c1.6,0,7.5,0,10.5-1.1c5.1-2,7.2-6.7,7.2-10.8c0-4.3-2.2-8.4-5.7-10c-2.8-1.3-6.3-1.8-12.8-1.8H610z"/>
</svg>
