<?xml version="1.0" encoding="utf-8"?>
<!-- Generator: Adobe Illustrator 19.2.1, SVG Export Plug-In . SVG Version: 6.00 Build 0)  -->
<svg version="1.1" id="layer" xmlns="http://www.w3.org/2000/svg" xmlns:xlink="http://www.w3.org/1999/xlink" x="0px" y="0px"
	 viewBox="0 0 652 652" style="enable-background:new 0 0 652 652;" xml:space="preserve">
<style type="text/css">
	.st0{fill:#00AAC3;}
	.st1{fill:#7C6F60;}
</style>
<g>
	<path class="st0" d="M302.2,370.5c-14,0-25.4-11.4-25.4-25.4v-36.6c0-14,11.4-25.4,25.4-25.4h54.1c14,0,25.4,11.4,25.4,25.4v36.6
		c0,14-11.4,25.4-25.4,25.4H302.2z M365.6,308.4c0-5.1-4.2-9.3-9.3-9.3h-54.1c-5.1,0-9.3,4.2-9.3,9.3v36.6c0,5.1,4.2,9.3,9.3,9.3
		h54.1c5.1,0,9.3-4.2,9.3-9.3V308.4z"/>
	<path class="st0" d="M169.3,345.1c0,5.1,4.2,9.3,9.3,9.3h70.9l-5.7,16.1h-65.2c-14,0-25.4-11.4-25.4-25.4v-36.6
		c0-14,11.4-25.4,25.4-25.4h52c14,0,25.4,11.4,25.4,25.4v26.4h-86.7V345.1z M178.6,299.1c-5.1,0-9.3,4.2-9.3,9.3v10.3h70.6v-10.3
		c0-5.1-4.2-9.3-9.3-9.3H178.6z"/>
	<path class="st1" d="M600.7,318.7c14.4,0.1,25.9,11.6,25.9,25.9c0,14.3-11.6,25.9-25.9,25.9H525l5.8-16.1h70c5.4,0,9.8-4.4,9.8-9.8
		c0-5.4-4.4-9.8-9.8-9.8h-51c-14.4-0.1-25.9-11.6-25.9-25.9c0-14.3,11.6-25.9,25.9-25.9h63.5l-5.7,16.1h-57.8
		c-5.4,0-9.8,4.4-9.8,9.8c0,5.4,4.4,9.8,9.8,9.8H600.7z"/>
	<path class="st1" d="M428.2,354.4h45.7l-5.8,16.1h-40c-14,0-25.4-11.4-25.4-25.4v-62h16.1v62C418.9,350.2,423.1,354.4,428.2,354.4"
		/>
</g>
<rect x="487.2" y="283.1" class="st1" width="16.1" height="87.4"/>
<rect x="26.6" y="283.1" class="st0" width="16.1" height="87.4"/>
<path class="st0" d="M48.2,326.8c0-8.6,5.5-15.9,13.1-18.6l75.4-27.2l5.6,15.6L66.8,323c-1.5,0.6-2.6,2-2.6,3.8
	c0,1.7,1.1,3.2,2.6,3.8l75.6,26.5l-5.6,15.6l-75.4-27.2C53.7,342.7,48.2,335.4,48.2,326.8"/>
</svg>
