<?xml version="1.0" encoding="UTF-8"?>
<svg xmlns="http://www.w3.org/2000/svg" xmlns:xlink="http://www.w3.org/1999/xlink" width="515.12pt" height="185.27pt" viewBox="0 0 515.12 185.27" version="1.1">
<defs>
<clipPath id="clip1">
  <path d="M 0 0 L 515.121094 0 L 515.121094 185.269531 L 0 185.269531 Z M 0 0 "/>
</clipPath>
</defs>
<g id="surface1">
<g clip-path="url(#clip1)" clip-rule="nonzero">
<path style=" stroke:none;fill-rule:nonzero;fill:rgb(92.89856%,10.998535%,13.699341%);fill-opacity:1;" d="M 0 185.269531 C 200.976563 129.257813 342.839844 111.769531 515.117188 96.261719 C 473.027344 58.558594 430.351563 27.46875 383.398438 -0.00390625 C 266.023438 43.890625 124.5625 116.785156 0 185.269531 "/>
</g>
<path style=" stroke:none;fill-rule:nonzero;fill:rgb(100%,100%,100%);fill-opacity:1;" d="M 382.519531 82.578125 L 393.71875 59.960938 L 403.832031 82.578125 Z M 401.695313 49.515625 L 385.929688 49.515625 L 357.480469 106.335938 L 371.363281 106.335938 L 377.796875 92.445313 L 408.335938 92.445313 L 414.617188 106.097656 C 419.246094 105.605469 423.886719 105.113281 428.539063 104.617188 Z M 367.1875 49.515625 L 309.894531 49.515625 L 309.894531 59.332031 L 331.972656 59.332031 L 331.972656 106.335938 L 345.027344 106.335938 L 345.027344 59.332031 L 367.1875 59.332031 Z M 288.476563 70.164063 C 286.003906 73.277344 281.800781 73.277344 278.339844 73.277344 L 264.570313 73.277344 L 264.570313 58.6875 L 280.710938 58.6875 C 284.394531 58.734375 286.90625 58.980469 288.59375 61.527344 C 289.421875 62.714844 289.867188 64.265625 289.867188 65.921875 C 289.867188 67.589844 289.402344 69 288.476563 70.164063 M 302.539063 66.363281 C 302.539063 59.597656 299.152344 55.765625 297.144531 54.105469 C 292.105469 49.710938 286.601563 49.617188 281.800781 49.515625 L 265.59375 49.515625 C 260.941406 51.632813 256.289063 53.800781 251.660156 55.960938 L 251.660156 106.335938 L 264.570313 106.335938 L 264.570313 82.34375 L 276.863281 82.34375 C 277.9375 83.804688 286.886719 101.136719 289.554688 106.335938 L 304.929688 106.335938 C 302.46875 101.992188 294.613281 88.292969 290.394531 81.539063 C 298.042969 79.589844 302.539063 74.128906 302.539063 66.363281 "/>
</g>
</svg>
